<svg id="visual" viewBox="0 0 960 540" width="960" height="540" xmlns="http://www.w3.org/2000/svg" xmlns:xlink="http://www.w3.org/1999/xlink" version="1.1"><path d="M0 98L64 98L64 82L128 82L128 109L192 109L192 98L256 98L256 104L320 104L320 55L384 55L384 50L448 50L448 93L512 93L512 77L576 77L576 87L640 87L640 55L704 55L704 104L768 104L768 77L832 77L832 87L896 87L896 50L960 50L960 87L960 0L960 0L896 0L896 0L832 0L832 0L768 0L768 0L704 0L704 0L640 0L640 0L576 0L576 0L512 0L512 0L448 0L448 0L384 0L384 0L320 0L320 0L256 0L256 0L192 0L192 0L128 0L128 0L64 0L64 0L0 0Z" fill="#69bafa"></path><path d="M0 136L64 136L64 152L128 152L128 152L192 152L192 152L256 152L256 179L320 179L320 98L384 98L384 136L448 136L448 131L512 131L512 141L576 141L576 174L640 174L640 120L704 120L704 179L768 179L768 158L832 158L832 163L896 163L896 109L960 109L960 125L960 85L960 48L896 48L896 85L832 85L832 75L768 75L768 102L704 102L704 53L640 53L640 85L576 85L576 75L512 75L512 91L448 91L448 48L384 48L384 53L320 53L320 102L256 102L256 96L192 96L192 107L128 107L128 80L64 80L64 96L0 96Z" fill="#54a2e8"></path><path d="M0 303L64 303L64 363L128 363L128 368L192 368L192 336L256 336L256 309L320 309L320 314L384 314L384 341L448 341L448 374L512 374L512 244L576 244L576 271L640 271L640 314L704 314L704 379L768 379L768 325L832 325L832 347L896 347L896 314L960 314L960 244L960 123L960 107L896 107L896 161L832 161L832 156L768 156L768 177L704 177L704 118L640 118L640 172L576 172L576 139L512 139L512 129L448 129L448 134L384 134L384 96L320 96L320 177L256 177L256 150L192 150L192 150L128 150L128 150L64 150L64 134L0 134Z" fill="#418ad6"></path><path d="M0 428L64 428L64 433L128 433L128 433L192 433L192 417L256 417L256 395L320 395L320 438L384 438L384 411L448 411L448 444L512 444L512 325L576 325L576 390L640 390L640 444L704 444L704 438L768 438L768 438L832 438L832 444L896 444L896 444L960 444L960 303L960 242L960 312L896 312L896 345L832 345L832 323L768 323L768 377L704 377L704 312L640 312L640 269L576 269L576 242L512 242L512 372L448 372L448 339L384 339L384 312L320 312L320 307L256 307L256 334L192 334L192 366L128 366L128 361L64 361L64 301L0 301Z" fill="#3173c3"></path><path d="M0 541L64 541L64 541L128 541L128 541L192 541L192 541L256 541L256 541L320 541L320 541L384 541L384 541L448 541L448 541L512 541L512 541L576 541L576 541L640 541L640 541L704 541L704 541L768 541L768 541L832 541L832 541L896 541L896 541L960 541L960 541L960 301L960 442L896 442L896 442L832 442L832 436L768 436L768 436L704 436L704 442L640 442L640 388L576 388L576 323L512 323L512 442L448 442L448 409L384 409L384 436L320 436L320 393L256 393L256 415L192 415L192 431L128 431L128 431L64 431L64 426L0 426Z" fill="#235cb0"></path></svg>