<svg id="visual" viewBox="0 0 960 540" width="960" height="540" xmlns="http://www.w3.org/2000/svg" xmlns:xlink="http://www.w3.org/1999/xlink" version="1.1"><rect x="0" y="0" width="960" height="540" fill="#ffffff"></rect><defs><linearGradient id="grad1_0" x1="43.8%" y1="0%" x2="100%" y2="100%"><stop offset="14.444444444444446%" stop-color="#62a8e8" stop-opacity="1"></stop><stop offset="85.55555555555554%" stop-color="#62a8e8" stop-opacity="1"></stop></linearGradient></defs><defs><linearGradient id="grad1_1" x1="43.8%" y1="0%" x2="100%" y2="100%"><stop offset="14.444444444444446%" stop-color="#62a8e8" stop-opacity="1"></stop><stop offset="85.55555555555554%" stop-color="#b7d2f4" stop-opacity="1"></stop></linearGradient></defs><defs><linearGradient id="grad1_2" x1="43.8%" y1="0%" x2="100%" y2="100%"><stop offset="14.444444444444446%" stop-color="#ffffff" stop-opacity="1"></stop><stop offset="85.55555555555554%" stop-color="#b7d2f4" stop-opacity="1"></stop></linearGradient></defs><defs><linearGradient id="grad2_0" x1="0%" y1="0%" x2="56.3%" y2="100%"><stop offset="14.444444444444446%" stop-color="#62a8e8" stop-opacity="1"></stop><stop offset="85.55555555555554%" stop-color="#62a8e8" stop-opacity="1"></stop></linearGradient></defs><defs><linearGradient id="grad2_1" x1="0%" y1="0%" x2="56.3%" y2="100%"><stop offset="14.444444444444446%" stop-color="#b7d2f4" stop-opacity="1"></stop><stop offset="85.55555555555554%" stop-color="#62a8e8" stop-opacity="1"></stop></linearGradient></defs><defs><linearGradient id="grad2_2" x1="0%" y1="0%" x2="56.3%" y2="100%"><stop offset="14.444444444444446%" stop-color="#b7d2f4" stop-opacity="1"></stop><stop offset="85.55555555555554%" stop-color="#ffffff" stop-opacity="1"></stop></linearGradient></defs><g transform="translate(960, 0)"><path d="M0 486C-69 477.6 -137.9 469.2 -177.6 428.7C-217.2 388.2 -227.5 315.5 -275.1 275.1C-322.7 234.6 -407.6 226.5 -449 186C-490.4 145.5 -488.2 72.8 -486 0L0 0Z" fill="#dce8fa"></path><path d="M0 324C-46 318.4 -92 312.8 -118.4 285.8C-144.8 258.8 -151.6 210.3 -183.4 183.4C-215.1 156.4 -271.8 151 -299.3 124C-326.9 97 -325.5 48.5 -324 0L0 0Z" fill="#90bdee"></path><path d="M0 162C-23 159.2 -46 156.4 -59.2 142.9C-72.4 129.4 -75.8 105.2 -91.7 91.7C-107.6 78.2 -135.9 75.5 -149.7 62C-163.5 48.5 -162.7 24.3 -162 0L0 0Z" fill="#62a8e8"></path></g><g transform="translate(0, 540)"><path d="M0 -486C71.3 -486.4 142.7 -486.7 186 -449C229.3 -411.3 244.6 -335.5 289.9 -289.9C335.2 -244.3 410.4 -228.9 448.1 -185.6C485.8 -142.3 485.9 -71.2 486 0L0 0Z" fill="#dce8fa"></path><path d="M0 -324C47.6 -324.2 95.1 -324.5 124 -299.3C152.9 -274.2 163.1 -223.7 193.3 -193.3C223.5 -162.9 273.6 -152.6 298.7 -123.7C323.8 -94.9 323.9 -47.4 324 0L0 0Z" fill="#90bdee"></path><path d="M0 -162C23.8 -162.1 47.6 -162.2 62 -149.7C76.4 -137.1 81.5 -111.8 96.6 -96.6C111.7 -81.4 136.8 -76.3 149.4 -61.9C161.9 -47.4 162 -23.7 162 0L0 0Z" fill="#62a8e8"></path></g></svg>