<svg id="visual" viewBox="0 0 540 960" width="540" height="960" xmlns="http://www.w3.org/2000/svg" xmlns:xlink="http://www.w3.org/1999/xlink" version="1.1"><rect x="0" y="0" width="540" height="960" fill="#ffffff"></rect><defs><linearGradient id="grad1_0" x1="0%" y1="0%" x2="100%" y2="100%"><stop offset="30%" stop-color="#588bfa" stop-opacity="1"></stop><stop offset="70%" stop-color="#588bfa" stop-opacity="1"></stop></linearGradient></defs><defs><linearGradient id="grad1_1" x1="0%" y1="0%" x2="100%" y2="100%"><stop offset="30%" stop-color="#588bfa" stop-opacity="1"></stop><stop offset="70%" stop-color="#b7c3fe" stop-opacity="1"></stop></linearGradient></defs><defs><linearGradient id="grad1_2" x1="0%" y1="0%" x2="100%" y2="100%"><stop offset="30%" stop-color="#ffffff" stop-opacity="1"></stop><stop offset="70%" stop-color="#b7c3fe" stop-opacity="1"></stop></linearGradient></defs><defs><linearGradient id="grad2_0" x1="0%" y1="0%" x2="100%" y2="100%"><stop offset="30%" stop-color="#588bfa" stop-opacity="1"></stop><stop offset="70%" stop-color="#588bfa" stop-opacity="1"></stop></linearGradient></defs><defs><linearGradient id="grad2_1" x1="0%" y1="0%" x2="100%" y2="100%"><stop offset="30%" stop-color="#b7c3fe" stop-opacity="1"></stop><stop offset="70%" stop-color="#588bfa" stop-opacity="1"></stop></linearGradient></defs><defs><linearGradient id="grad2_2" x1="0%" y1="0%" x2="100%" y2="100%"><stop offset="30%" stop-color="#b7c3fe" stop-opacity="1"></stop><stop offset="70%" stop-color="#ffffff" stop-opacity="1"></stop></linearGradient></defs><g transform="translate(540, 0)"><path d="M0 540C-57.6 499 -115.3 458.1 -180.6 436.1C-246 414.1 -319.1 411 -376.2 376.2C-433.2 341.3 -474.3 274.6 -498.9 206.6C-523.5 138.6 -531.8 69.3 -540 0L0 0Z" fill="#dce0ff"></path><path d="M0 360C-38.4 332.7 -76.8 305.4 -120.4 290.7C-164 276 -212.7 274 -250.8 250.8C-288.8 227.6 -316.2 183.1 -332.6 137.8C-349 92.4 -354.5 46.2 -360 0L0 0Z" fill="#8da6fc"></path><path d="M0 180C-19.2 166.3 -38.4 152.7 -60.2 145.4C-82 138 -106.4 137 -125.4 125.4C-144.4 113.8 -158.1 91.5 -166.3 68.9C-174.5 46.2 -177.3 23.1 -180 0L0 0Z" fill="#588bfa"></path></g><g transform="translate(0, 960)"><path d="M0 -540C70.3 -527.1 140.6 -514.2 200.9 -485C261.2 -455.9 311.5 -410.5 363.5 -363.5C415.4 -316.4 469.2 -267.5 498.9 -206.6C528.6 -145.8 534.3 -72.9 540 0L0 0Z" fill="#dce0ff"></path><path d="M0 -360C46.9 -351.4 93.7 -342.8 133.9 -323.4C174.1 -303.9 207.6 -273.7 242.3 -242.3C277 -210.9 312.8 -178.3 332.6 -137.8C352.4 -97.2 356.2 -48.6 360 0L0 0Z" fill="#8da6fc"></path><path d="M0 -180C23.4 -175.7 46.9 -171.4 67 -161.7C87.1 -152 103.8 -136.8 121.2 -121.2C138.5 -105.5 156.4 -89.2 166.3 -68.9C176.2 -48.6 178.1 -24.3 180 0L0 0Z" fill="#588bfa"></path></g></svg>